<svg width="168" height="168" viewBox="0 0 168 168" fill="none" xmlns="http://www.w3.org/2000/svg">
<g clip-path="url(#clip0_3_41)">
<path d="M113.959 125.97H54.6409C50.9714 125.966 47.4533 124.513 44.8586 121.93C42.2638 119.347 40.8042 115.845 40.8 112.192V42.2885C40.7954 40.4785 41.1512 38.6854 41.8469 37.0131C42.5427 35.3408 43.5645 33.8223 44.8534 32.5456L48.7091 28.7094V21.6511C48.7091 21.1291 48.9174 20.6285 49.2882 20.2593C49.6591 19.8902 50.162 19.6828 50.6864 19.6828H117.914C118.438 19.6828 118.941 19.8902 119.312 20.2593C119.683 20.6285 119.891 21.1291 119.891 21.6511V28.7094L123.747 32.5456C125.035 33.8223 126.057 35.3408 126.753 37.0131C127.449 38.6854 127.805 40.4785 127.8 42.2885V112.192C127.796 115.845 126.336 119.347 123.741 121.93C121.147 124.513 117.629 125.966 113.959 125.97ZM52.6637 23.6194V29.5242C52.6635 30.0462 52.4552 30.5468 52.0843 30.9158L47.6493 35.3287C46.729 36.241 45.9993 37.3258 45.5024 38.5203C45.0056 39.7149 44.7514 40.9956 44.7546 42.2885V112.192C44.7577 114.801 45.8003 117.303 47.6537 119.148C49.5071 120.992 52.0199 122.03 54.6409 122.033H113.959C116.58 122.03 119.093 120.992 120.946 119.148C122.8 117.303 123.842 114.801 123.845 112.192V42.2885C123.849 40.9954 123.594 39.7145 123.097 38.5199C122.6 37.3253 121.87 36.2406 120.949 35.3287L116.516 30.9158C116.145 30.5468 115.936 30.0462 115.936 29.5242V23.6194H52.6637Z" fill="#C2E812"/>
<path d="M120.879 23.6194H47.7205C46.4094 23.6194 45.1521 23.101 44.2251 22.1782C43.2981 21.2553 42.7773 20.0037 42.7773 18.6987C42.7773 17.3936 43.2981 16.142 44.2251 15.2192C45.1521 14.2964 46.4094 13.778 47.7205 13.778H120.879C122.19 13.778 123.448 14.2964 124.375 15.2192C125.302 16.142 125.823 17.3936 125.823 18.6987C125.823 20.0037 125.302 21.2553 124.375 22.1782C123.448 23.101 122.19 23.6194 120.879 23.6194ZM47.7205 17.7145C47.4583 17.7145 47.2068 17.8182 47.0214 18.0028C46.836 18.1874 46.7318 18.4377 46.7318 18.6987C46.7318 18.9597 46.836 19.21 47.0214 19.3946C47.2068 19.5791 47.4583 19.6828 47.7205 19.6828H120.879C121.142 19.6828 121.393 19.5791 121.579 19.3946C121.764 19.21 121.868 18.9597 121.868 18.6987C121.868 18.4377 121.764 18.1874 121.579 18.0028C121.393 17.8182 121.142 17.7145 120.879 17.7145H47.7205Z" fill="#C2E812"/>
<path d="M117.914 17.7145H50.6864C50.162 17.7145 49.659 17.5072 49.2882 17.138C48.9174 16.7689 48.7091 16.2683 48.7091 15.7463V5.90485C48.7091 4.33878 49.3341 2.83686 50.4465 1.72949C51.5589 0.622116 53.0677 0 54.6409 0L113.959 0C115.532 0 117.041 0.622116 118.153 1.72949C119.266 2.83686 119.891 4.33878 119.891 5.90485V15.7463C119.891 16.2683 119.683 16.7689 119.312 17.138C118.941 17.5072 118.438 17.7145 117.914 17.7145ZM52.6636 13.778H115.936V5.90485C115.936 5.38282 115.728 4.88218 115.357 4.51306C114.986 4.14394 114.483 3.93656 113.959 3.93656H54.6409C54.1165 3.93656 53.6136 4.14394 53.2428 4.51306C52.872 4.88218 52.6636 5.38282 52.6636 5.90485V13.778Z" fill="#C2E812"/>
<path d="M62.55 7.87314H58.5955V15.7463H62.55V7.87314Z" fill="#C2E812"/>
<path d="M70.4591 7.87314H66.5045V15.7463H70.4591V7.87314Z" fill="#C2E812"/>
<path d="M78.3682 7.87314H74.4136V15.7463H78.3682V7.87314Z" fill="#C2E812"/>
<path d="M86.2773 7.87314H82.3228V15.7463H86.2773V7.87314Z" fill="#C2E812"/>
<path d="M94.1863 7.87314H90.2318V15.7463H94.1863V7.87314Z" fill="#C2E812"/>
<path d="M102.095 7.87314H98.1409V15.7463H102.095V7.87314Z" fill="#C2E812"/>
<path d="M110.005 7.87314H106.05V15.7463H110.005V7.87314Z" fill="#C2E812"/>
<path d="M97.8344 120.097C95.6065 120.151 93.395 119.706 91.3636 118.793C89.3322 117.881 87.5329 116.526 86.0993 114.828C65.765 89.5785 60.5075 78.9438 53.0077 47.906C52.6165 46.1826 52.5744 44.3989 52.8837 42.6591C53.1929 40.9194 53.8475 39.2584 54.809 37.7733C57.3411 33.8377 61.3382 31.0629 65.9232 30.0576L66.202 29.9946C74.5777 28.0775 82.4848 32.1479 84.1952 39.2771C90.8605 67.0042 94.6035 74.5723 112.796 97.1111C113.817 98.3734 114.566 99.8312 114.996 101.394C115.426 102.957 115.529 104.591 115.298 106.195C114.963 108.248 114.216 110.212 113.101 111.971C111.986 113.73 110.526 115.246 108.808 116.43L108.581 116.593C105.456 118.854 101.697 120.079 97.8344 120.097ZM89.1858 112.363C92.8694 116.938 100.694 117.414 106.265 113.403L106.493 113.239C107.778 112.37 108.875 111.252 109.716 109.951C110.557 108.65 111.126 107.194 111.389 105.669C111.553 104.593 111.49 103.494 111.203 102.443C110.916 101.393 110.413 100.413 109.724 99.5675C91.2402 76.6862 87.1235 68.3604 80.3454 40.1923C79.1432 35.1909 73.3142 32.4018 67.0839 33.8308L66.8051 33.8958C63.2476 34.6622 60.1409 36.8021 58.1664 39.8459C57.4812 40.8894 57.0117 42.0582 56.7853 43.2843C56.5589 44.5103 56.58 45.769 56.8475 46.9868C64.1733 77.2984 69.3043 87.6929 89.1799 112.363H89.1858Z" fill="#C2E812"/>
<path d="M60.5965 45.861C59.2598 37.297 60.4304 32.1243 64.0745 30.4828L65.7038 34.069C64.4344 34.6418 63.3587 37.915 64.5036 45.2567L60.5965 45.861Z" fill="#C2E812"/>
<path d="M62.2672 53.6377C61.8995 52.252 61.5772 50.9162 61.3004 49.6302L65.1659 48.8036C65.4309 50.0298 65.7413 51.3092 66.0913 52.6299L62.2672 53.6377Z" fill="#C2E812"/>
<path d="M108.098 117.003C97.1937 116.768 83.8472 103.327 73.2628 81.9219C69.3471 74.1013 66.056 65.9859 63.42 57.651L67.2005 56.4976C69.7751 64.6315 72.9882 72.5513 76.8101 80.1839C86.5896 99.9612 98.9041 112.869 108.183 113.066L108.098 117.003Z" fill="#C2E812"/>
<path d="M98.8626 103.473C91.6308 96.9997 85.8155 89.1137 81.779 80.3059C72.6143 61.7804 67.8273 41.9244 70.641 34.1025C70.8547 33.3697 71.2178 32.6886 71.7077 32.1017C72.1976 31.5148 72.8037 31.0347 73.4883 30.6914L75.1175 34.2776C74.7431 34.5667 74.4777 34.9731 74.3642 35.4311C72.2624 41.267 75.8551 59.4185 85.3262 78.5679C89.1177 86.8761 94.5831 94.3204 101.384 100.439L98.8626 103.473Z" fill="#C2E812"/>
<path d="M113.916 109.936C109.738 109.721 105.704 108.347 102.269 105.97L104.421 102.668C107.242 104.642 110.56 105.796 114.003 106L113.916 109.936Z" fill="#C2E812"/>
<path d="M107.665 91.468L104.175 89.6139C109.601 79.4851 112.431 69.5217 115.752 54.6828C116.8 50.0042 113.275 44.9556 108.055 43.6604L107.841 43.6073C106.677 43.2922 105.46 43.211 104.264 43.3684C103.067 43.5259 101.914 43.9189 100.871 44.5245C100.08 44.9997 99.394 45.6311 98.8564 46.3798C98.3188 47.1286 97.9408 47.9788 97.7454 48.8784C95.8789 57.2731 94.4295 62.8532 92.9011 67.5318L89.1443 66.3114C90.6332 61.7608 92.0528 56.2909 93.8897 48.0241C94.2037 46.6128 94.8007 45.2792 95.6451 44.1032C96.4894 42.9272 97.5636 41.9331 98.8033 41.1804C100.294 40.2997 101.946 39.7229 103.662 39.4837C105.379 39.2444 107.126 39.3475 108.802 39.7869L109.016 39.838C112.479 40.5844 115.519 42.6362 117.496 45.5634C119.474 48.4906 120.237 52.0662 119.626 55.541C116.215 70.7184 113.305 80.9397 107.665 91.468Z" fill="#C2E812"/>
<path d="M83.341 118.107C80.1198 118.083 76.9986 116.991 74.4709 115.003L74.293 114.865C68.634 110.47 67.2045 103.016 71.0345 97.8925C71.7028 96.9976 72.3487 96.1276 72.9722 95.2826L76.1615 97.6091C75.5327 98.4607 74.8809 99.3392 74.206 100.245C71.6692 103.634 72.7744 108.694 76.7211 111.759L76.899 111.897C78.3416 113.07 80.0859 113.817 81.9336 114.052C83.7813 114.287 85.6582 114.001 87.3509 113.227L89.1601 116.731C87.3579 117.644 85.363 118.115 83.341 118.107Z" fill="#C2E812"/>
<path d="M105.789 79.4851L102.135 77.9774C110.774 57.2396 111.096 44.8788 108.848 43.7844L110.584 40.2415C117.672 43.6959 112.431 63.5401 105.789 79.4851Z" fill="#C2E812"/>
<path d="M100.711 73.4917L96.9921 72.1572C103.357 54.5509 102.663 44.8473 101.314 43.9557L103.058 40.4128C108.666 43.1566 105.771 59.4795 100.711 73.4917Z" fill="#C2E812"/>
<path d="M50.6864 51.1753H46.7319V46.2251C46.7272 44.415 47.083 42.622 47.7787 40.9497C48.4745 39.2773 49.4964 37.7589 50.7853 36.4821C51.9896 35.3224 52.9506 33.9363 53.6124 32.404C54.2743 30.8717 54.6239 29.2238 54.6409 27.5559H58.5955C58.581 29.7413 58.1306 31.9021 57.2705 33.9128C56.4104 35.9236 55.1577 37.7442 53.5851 39.2692C52.6645 40.1807 51.9344 41.2647 51.4368 42.4585C50.9393 43.6524 50.6843 44.9326 50.6864 46.2251V51.1753Z" fill="#C2E812"/>
<path d="M50.6863 55.1119H46.7318V59.0485H50.6863V55.1119Z" fill="#C2E812"/>
<path d="M111.982 120.065H56.6182C53.9971 120.062 51.4843 119.024 49.6309 117.179C47.7776 115.334 46.735 112.833 46.7318 110.224V62.985H50.6864V110.224C50.6864 111.79 51.3113 113.292 52.4237 114.399C53.5362 115.507 55.045 116.129 56.6182 116.129H111.982C113.555 116.129 115.064 115.507 116.176 114.399C117.289 113.292 117.914 111.79 117.914 110.224V106.287H121.868V110.224C121.865 112.833 120.822 115.334 118.969 117.179C117.116 119.024 114.603 120.062 111.982 120.065Z" fill="#C2E812"/>
<path d="M121.868 102.351H117.914V46.2251C117.917 44.932 117.662 43.6511 117.165 42.4565C116.668 41.2618 115.938 40.1772 115.017 39.2652C113.445 37.7407 112.192 35.9207 111.332 33.9108C110.471 31.9008 110.02 29.7408 110.005 27.5559H113.959C113.976 29.2232 114.325 30.8705 114.986 32.4024C115.647 33.9344 116.607 35.3204 117.811 36.4801C119.101 37.7568 120.123 39.2754 120.82 40.9481C121.516 42.6208 121.873 44.4144 121.868 46.2251V102.351Z" fill="#C2E812"/>
<path d="M58.5955 110.224C58.0711 110.224 57.5682 110.016 57.1975 109.647L53.243 105.711L56.0388 102.927L58.5955 105.472L61.1521 102.927L63.9479 105.711L59.9934 109.647C59.6227 110.016 59.1198 110.224 58.5955 110.224Z" fill="#C2E812"/>
<path d="M58.5955 102.351C58.0711 102.351 57.5682 102.143 57.1975 101.774L53.243 97.8374L56.0388 95.0543L58.5955 97.5992L61.1521 95.0543L63.9479 97.8374L59.9934 101.774C59.6227 102.143 59.1198 102.351 58.5955 102.351Z" fill="#C2E812"/>
<path d="M58.5955 94.4775C58.0711 94.4774 57.5682 94.27 57.1975 93.9008L53.243 89.9643L56.0388 87.1811L58.5955 89.7261L61.1521 87.1811L63.9479 89.9643L59.9934 93.9008C59.6227 94.27 59.1198 94.4774 58.5955 94.4775Z" fill="#C2E812"/>
<path d="M60.5727 80.6996H56.6182V84.6361H60.5727V80.6996Z" fill="#C2E812"/>
<path d="M60.5727 108.256H56.6182V112.192H60.5727V108.256Z" fill="#C2E812"/>
<path d="M90.2318 55.1119C89.7074 55.1118 89.2046 54.9043 88.8339 54.5352L84.8793 50.5986L87.6752 47.8155L90.2318 50.3605L92.7884 47.8155L95.5843 50.5986L91.6297 54.5352C91.259 54.9043 90.7562 55.1118 90.2318 55.1119Z" fill="#C2E812"/>
<path d="M90.2318 47.2388C89.7074 47.2387 89.2046 47.0312 88.8339 46.6621L84.8793 42.7255L87.6752 39.9424L90.2318 42.4873L92.7884 39.9424L95.5843 42.7255L91.6297 46.6621C91.259 47.0312 90.7562 47.2387 90.2318 47.2388Z" fill="#C2E812"/>
<path d="M90.2318 39.3656C89.7074 39.3655 89.2046 39.1581 88.8339 38.7889L84.8793 34.8524L87.6752 32.0692L90.2318 34.6142L92.7884 32.0692L95.5843 34.8524L91.6297 38.7889C91.259 39.1581 90.7562 39.3655 90.2318 39.3656Z" fill="#C2E812"/>
<path d="M92.2091 25.5877H88.2545V29.5242H92.2091V25.5877Z" fill="#C2E812"/>
<path d="M12.5764 139.295C13.8059 139.939 14.7534 140.809 15.419 141.904C16.0845 142.999 16.4173 144.218 16.4173 145.562C16.4173 146.905 16.1076 148.11 15.4883 149.178C14.8689 150.245 13.9399 151.087 12.7012 151.704C11.4625 152.32 9.965 152.629 8.20865 152.629H4.38164V158.509H0V138.329H8.23638C9.9003 138.329 11.347 138.651 12.5764 139.295ZM11.2037 147.88C11.7398 147.236 12.0079 146.463 12.0079 145.562C12.0079 144.973 11.8693 144.416 11.5919 143.891C11.3146 143.367 10.9033 142.939 10.3579 142.608C9.81248 142.276 9.16078 142.111 8.40277 142.111H4.38164V148.847H8.84648C9.88181 148.847 10.6675 148.525 11.2037 147.88ZM19.5233 158.509V138.329H23.9049V158.509H19.5233ZM44.2186 157.377C42.5084 158.389 40.6458 158.895 38.6306 158.895C36.6524 158.895 34.8267 158.426 33.1535 157.487C31.4804 156.549 30.1538 155.279 29.174 153.678C28.1941 152.076 27.7042 150.328 27.7042 148.433C27.7042 146.555 28.1941 144.816 29.174 143.215C30.1538 141.614 31.4804 140.344 33.1535 139.405C34.8267 138.467 36.6524 137.998 38.6306 137.998C40.6273 137.998 42.4853 138.499 44.2047 139.502C45.9241 140.505 47.2737 141.844 48.2535 143.519L44.177 145.092C43.5299 144.172 42.7118 143.417 41.7227 142.829C40.7336 142.24 39.7029 141.945 38.6306 141.945C37.4473 141.945 36.3566 142.244 35.3582 142.842C34.3599 143.44 33.5695 144.236 32.9871 145.23C32.4048 146.224 32.1136 147.291 32.1136 148.433C32.1136 149.574 32.4048 150.646 32.9871 151.649C33.5695 152.652 34.3599 153.452 35.3582 154.05C36.3566 154.648 37.4473 154.948 38.6306 154.948C39.7029 154.948 40.7336 154.648 41.7227 154.05C42.7118 153.452 43.5299 152.684 44.177 151.745L48.2535 153.319C47.2737 155.012 45.9287 156.365 44.2186 157.377ZM55.658 158.509H51.2763V138.329H55.658V146.749L63.5616 138.329H68.997L60.6497 146.887L69.3575 158.509H63.9775L57.6269 149.923L55.658 151.966V158.509ZM87.106 158.509H72.0753V138.329H76.4846V154.727H87.106V158.509ZM94.1499 146.611H103.856V150.42H94.1499V154.727H105.132V158.509H89.7682V138.329H105.132V142.111H94.1499V146.611ZM117.528 158.509V138.329H126.541C127.983 138.329 129.258 138.623 130.368 139.212C131.477 139.801 132.337 140.629 132.947 141.697C133.557 142.764 133.862 143.979 133.862 145.341C133.862 146.795 133.492 148.092 132.753 149.233C132.013 150.374 131.006 151.212 129.73 151.745C131.043 153.402 132.79 155.656 134.971 158.509H129.73C128.547 157.036 126.929 154.938 124.877 152.215H121.882V158.509H117.528ZM126.541 148.433C127.299 148.433 127.983 148.161 128.593 147.618C129.203 147.075 129.508 146.316 129.508 145.341C129.508 144.549 129.295 143.813 128.87 143.132C128.445 142.451 127.669 142.111 126.541 142.111H121.882V148.433H126.541ZM138.244 158.509V138.329H142.625V158.509H138.244ZM168 148.902C168 149.123 167.982 149.509 167.945 150.061C167.797 151.754 167.228 153.273 166.239 154.616C165.25 155.96 163.974 157.009 162.412 157.763C160.85 158.518 159.163 158.895 157.351 158.895C155.373 158.895 153.547 158.426 151.874 157.487C150.201 156.549 148.874 155.279 147.894 153.678C146.914 152.076 146.425 150.328 146.425 148.433C146.425 146.555 146.914 144.812 147.894 143.201C148.874 141.591 150.201 140.316 151.874 139.378C153.547 138.439 155.373 137.97 157.351 137.97C159.218 137.97 160.961 138.407 162.578 139.281C164.196 140.155 165.513 141.338 166.53 142.829L162.759 145.009C162.093 144.108 161.289 143.371 160.346 142.801C159.403 142.23 158.405 141.945 157.351 141.945C156.168 141.945 155.072 142.244 154.065 142.842C153.057 143.44 152.258 144.236 151.666 145.23C151.074 146.224 150.778 147.291 150.778 148.433C150.778 149.574 151.074 150.646 151.666 151.649C152.258 152.652 153.057 153.452 154.065 154.05C155.072 154.648 156.168 154.948 157.351 154.948C158.201 154.948 159.043 154.777 159.875 154.437C160.706 154.096 161.428 153.632 162.038 153.043C162.648 152.454 163.054 151.81 163.258 151.11H155.687V147.273H167.945C167.982 148.009 168 148.552 168 148.902Z" fill="white"/>
</g>
<defs>
<clipPath id="clip0_3_41">
<rect width="168" height="168" fill="white"/>
</clipPath>
</defs>
</svg>
